<svg xmlns="http://www.w3.org/2000/svg" viewBox="0 0 1440 320">
  <defs>
    <linearGradient id="auroraGradient" x1="0%" y1="0%" x2="100%" y2="0%">
      <stop offset="0%" style="stop-color:#0f2137;stop-opacity:1" />
      <stop offset="50%" style="stop-color:#0a1628;stop-opacity:1" />
      <stop offset="100%" style="stop-color:#0f2137;stop-opacity:1" />
    </linearGradient>
  </defs>
  <path fill="url(#auroraGradient)" fill-opacity="1" d="M0,160L48,170.7C96,181,192,203,288,197.3C384,192,480,160,576,165.3C672,171,768,213,864,218.7C960,224,1056,192,1152,165.3C1248,139,1344,117,1392,106.7L1440,96L1440,320L1392,320C1344,320,1248,320,1152,320C1056,320,960,320,864,320C768,320,672,320,576,320C480,320,384,320,288,320C192,320,96,320,48,320L0,320Z"></path>
</svg>
